<svg width="133" height="43" viewBox="0 0 133 43" fill="none" xmlns="http://www.w3.org/2000/svg">
<path d="M56.736 29V9.4H72.416V14.16H62.168V17.492H71.436V22H62.168V29H56.736ZM74.6963 29V8.56H80.0163V29H74.6963ZM90.7068 29.364C88.3174 29.364 86.3294 28.5987 84.7428 27.068C83.1561 25.5187 82.3628 23.6427 82.3628 21.44C82.3628 19.256 83.1561 17.3893 84.7428 15.84C86.3481 14.2907 88.3548 13.516 90.7628 13.516C93.1521 13.516 95.1401 14.2907 96.7268 15.84C98.3134 17.3707 99.1068 19.2373 99.1068 21.44C99.1068 23.624 98.3041 25.4907 96.6988 27.04C95.1121 28.5893 93.1148 29.364 90.7068 29.364ZM90.7628 24.856C91.7148 24.856 92.4801 24.5293 93.0588 23.876C93.6374 23.2227 93.9268 22.4107 93.9268 21.44C93.9268 20.5067 93.6188 19.704 93.0028 19.032C92.3868 18.36 91.6214 18.024 90.7068 18.024C89.7548 18.024 88.9894 18.3507 88.4108 19.004C87.8321 19.6573 87.5428 20.4693 87.5428 21.44C87.5428 22.3733 87.8508 23.176 88.4668 23.848C89.0828 24.52 89.8481 24.856 90.7628 24.856ZM100.275 29V25.5L107.275 18.08H100.527V13.852H114.331V17.352L107.303 24.772H114.331V29H100.275ZM121.064 33.564C119.384 33.564 117.76 33.1253 116.192 32.248L117.844 28.524C118.74 29.0653 119.515 29.336 120.168 29.336C120.691 29.336 121.102 29.1307 121.4 28.72L115.464 13.852H121.036L124.06 22.98L126.916 13.852H132.376L126.832 28.636C126.16 30.428 125.404 31.6973 124.564 32.444C123.724 33.1907 122.558 33.564 121.064 33.564Z" fill="white"/>
<path d="M22.7078 13.4872L37.1292 27.9086C38.4248 29.2043 40.6439 28.6483 41.1612 26.8885C41.7703 24.8048 42.0652 22.5906 41.9879 20.2942C41.6253 9.34401 32.7104 0.400132 21.7602 0.0133696C9.81409 -0.407234 0 9.15062 0 21.0001C0 23.0499 0.294906 25.032 0.846043 26.9078C1.3585 28.6579 3.57755 29.1946 4.86837 27.9086L19.2898 13.4872C20.2325 12.5445 21.765 12.5445 22.7078 13.4872Z" fill="white"/>
<path d="M18.173 33.2701L19.3478 32.0953C20.2905 31.1525 21.823 31.1525 22.7658 32.0953L29.3214 38.6605C29.9886 39.3277 31.028 39.4776 31.8353 38.9893C32.5073 38.5832 33.1503 38.1481 33.7692 37.6743C34.9343 36.7799 35.06 35.0685 34.0205 34.0291L22.7029 22.7114C21.7602 21.7687 20.2276 21.7687 19.2849 22.7114L7.96727 34.0291C6.93268 35.0637 7.04871 36.7702 8.209 37.6646C11.7527 40.3865 16.186 42.006 20.9963 42.006H21.0205C21.9294 42.006 22.3838 40.9086 21.7408 40.2656L18.173 36.6881C17.2302 35.7453 17.2302 34.2128 18.173 33.2701Z" fill="white"/>
</svg>
