<?xml version="1.0" encoding="UTF-8"?>
<svg version="1.1" xmlns="http://www.w3.org/2000/svg" width="606" height="128">
<path d="M0 0 C7.58953661 6.3785679 12.72786068 13.5980719 17.1875 22.375 C17.68854248 23.36016602 17.68854248 23.36016602 18.19970703 24.36523438 C24.66958648 37.69791441 25.30846172 55.448654 21.125 69.625 C20.40655337 71.52069076 19.63859631 73.39868319 18.8125 75.25 C18.42707031 76.1575 18.04164062 77.065 17.64453125 78 C15.04540917 83.65245968 11.60031871 90.35609064 5.8125 93.25 C2.5 93.625 2.5 93.625 -1.1875 93.25 C-3.6875 91.0625 -3.6875 91.0625 -6.1875 88.25 C-12.96083812 82.49102653 -19.40195118 80.94173513 -28.1875 81.25 C-28.1875 80.26 -28.1875 79.27 -28.1875 78.25 C-27.5275 78.25 -26.8675 78.25 -26.1875 78.25 C-26.10618537 76.81344146 -26.04816441 75.3755517 -26 73.9375 C-25.96519531 73.13699219 -25.93039063 72.33648437 -25.89453125 71.51171875 C-26.00363784 69.18652994 -26.00363784 69.18652994 -27.53125 67.49609375 C-29.21851488 66.0517714 -29.21851488 66.0517714 -31.875 65.625 C-41.71125839 67.48089781 -51.21588029 81.26854908 -58.06591797 88.29980469 C-59.7689016 90.04525555 -61.48131655 91.7809959 -63.1953125 93.515625 C-63.70796661 94.04690002 -64.22062073 94.57817505 -64.74880981 95.12554932 C-67.95362903 98.35276615 -70.96609694 100.54156303 -75.1875 102.25 C-79.15287897 102.25 -80.63545368 101.75846371 -83.5625 99.0625 C-85.58106938 95.56882223 -86.04355929 94.21900216 -85.1875 90.25 C-81.3729992 84.78172523 -76.1756787 80.224168 -71.4140625 75.58984375 C-70.80144058 74.9919957 -70.18881866 74.39414764 -69.55763245 73.77818298 C-66.99331713 71.27768514 -64.42924832 68.77758927 -61.84130859 66.30151367 C-59.93490703 64.47393036 -58.04833302 62.62770098 -56.1640625 60.77734375 C-55.57871735 60.22610336 -54.99337219 59.67486298 -54.39028931 59.10691833 C-50.63068898 55.37304459 -49.29491078 52.75705724 -49.1875 47.25 C-49.93900023 43.97226496 -49.93900023 43.97226496 -53.1875 42.25 C-55.97194577 41.49616662 -55.97194577 41.49616662 -59.1875 42.25 C-64.23817306 45.78628374 -68.46141054 50.50235097 -72.71875 54.9296875 C-73.20346268 55.43152054 -73.68817535 55.93335358 -74.18757629 56.45039368 C-77.20663963 59.57760832 -77.20663963 59.57760832 -80.19677734 62.73242188 C-89.65493716 72.77768229 -89.65493716 72.77768229 -94.7265625 73.5390625 C-98.97415177 73.18429771 -100.43016125 72.49392794 -103.1875 69.25 C-108.64374534 54.66799222 -106.09451215 36.16737614 -99.8671875 22.3125 C-90.98431757 4.83800178 -76.54278547 -6.38247417 -58.1875 -12.6875 C-37.41867068 -17.61048177 -16.83015708 -12.70587202 0 0 Z M-45.0625 25.9375 C-47.64095508 28.70036764 -47.64095508 28.70036764 -48.1875 32.25 C-47.20775234 35.59747117 -46.18249301 38.35317109 -43.1875 40.25 C-37.61713883 40.88415653 -37.61713883 40.88415653 -32.6875 38.6875 C-30.60357182 35.30111671 -30.62947903 33.15614682 -31.1875 29.25 C-33.34225621 25.97477055 -34.8516423 25.34770406 -38.625 24.25 C-42.23105043 23.94944341 -42.23105043 23.94944341 -45.0625 25.9375 Z " fill="#FFFFFF" transform="translate(108.1875,13.75)"/>
<path d="M0 0 C7.26 0 14.52 0 22 0 C26.50056227 10.1262651 26.50056227 10.1262651 28.29003906 15.0546875 C28.69015198 16.15192139 29.09026489 17.24915527 29.50250244 18.37963867 C30.12774811 20.10984253 30.12774811 20.10984253 30.765625 21.875 C31.42301666 23.6835144 31.42301666 23.6835144 32.09368896 25.52856445 C33.01334764 28.05917737 33.93086725 30.59055128 34.84667969 33.12255859 C36.02250326 36.373214 37.20264773 39.62228002 38.38422012 42.87084961 C39.51315195 45.97574814 40.63935708 49.08163436 41.765625 52.1875 C42.19055237 53.35716309 42.61547974 54.52682617 43.05328369 55.73193359 C43.44078796 56.8039502 43.82829224 57.8759668 44.22753906 58.98046875 C44.74238861 60.40202271 44.74238861 60.40202271 45.26763916 61.85229492 C46 64 46 64 46 65 C39.73 65 33.46 65 27 65 C26.175 62.751875 25.35 60.50375 24.5 58.1875 C24.23896484 57.48391357 23.97792969 56.78032715 23.70898438 56.05541992 C22.68412514 53.22363626 22 51.03435748 22 48 C14.74 48 7.48 48 0 48 C-0.66 51.3 -1.32 54.6 -2 58 C-2.99 60.31 -3.98 62.62 -5 65 C-10.61 65 -16.22 65 -22 65 C-21.35704771 61.14228628 -20.85130432 58.18207669 -19.60473633 54.62548828 C-19.32386673 53.8166922 -19.04299713 53.00789612 -18.75361633 52.17459106 C-18.29743172 50.88547318 -18.29743172 50.88547318 -17.83203125 49.5703125 C-17.51473557 48.66231903 -17.19743988 47.75432556 -16.87052917 46.81881714 C-16.1977943 44.89663811 -15.52271787 42.97527721 -14.84545898 41.0546875 C-13.82872903 38.17102893 -12.81896855 35.28501056 -11.81054688 32.3984375 C-8.00917908 21.54509949 -4.08094995 10.75136737 0 0 Z M10 13 C7.69 20.59 5.38 28.18 3 36 C7.95 36 12.9 36 18 36 C16.48526781 28.01323028 13.83197448 20.59877122 11 13 C10.67 13 10.34 13 10 13 Z " fill="#FFFFFF" transform="translate(523,23)"/>
<path d="M0 0 C5.61 0 11.22 0 17 0 C17.33 12.54 17.66 25.08 18 38 C19.711875 35.36 21.42375 32.72 23.1875 30 C26.09792297 26.00373833 28.78857787 22.62607208 33.67675781 21.2421875 C39.81672554 20.58859831 45.90676356 21.10126707 52 22 C46 28 40 34 34 40 C35.45800885 44.53323443 38.02209565 47.67763154 41.125 51.1875 C42.11431151 52.33114083 43.10258231 53.47568271 44.08984375 54.62109375 C44.57952637 55.18683105 45.06920898 55.75256836 45.57373047 56.33544922 C47.65911413 58.76922974 49.6788773 61.25269629 51.6875 63.75 C52.33074219 64.54921875 52.97398437 65.3484375 53.63671875 66.171875 C55 68 55 68 55 69 C36.50995204 71.54461425 36.50995204 71.54461425 30.87841797 67.46191406 C27.10574674 63.34009308 22 56.8284877 22 51 C19.88996216 51.98385878 19.88996216 51.98385878 18 54 C17.53735538 56.71358863 17.30671542 58.97297291 17.25 61.6875 C17.1675 64.100625 17.085 66.51375 17 69 C11.39 69 5.78 69 0 69 C0 46.23 0 23.46 0 0 Z " fill="#FFFFFF" transform="translate(441,19)"/>
<path d="M0 0 C5.99347813 6.59282595 6.63451352 13.2738365 6.59765625 21.8984375 C6.5962413 22.55582916 6.59482635 23.21322083 6.59336853 23.89053345 C6.58781762 25.96873731 6.57527465 28.04682927 6.5625 30.125 C6.55747864 31.54296718 6.55291685 32.96093607 6.54882812 34.37890625 C6.53871962 37.83601421 6.51913533 41.29288338 6.5 44.75 C0.89 44.75 -4.72 44.75 -10.5 44.75 C-10.55607422 41.69685547 -10.55607422 41.69685547 -10.61328125 38.58203125 C-10.66197494 36.59950244 -10.71077194 34.61697472 -10.76245117 32.63452148 C-10.79559806 31.26224042 -10.82366171 29.88982638 -10.84643555 28.51733398 C-10.88016766 26.53862234 -10.9340149 24.56028624 -10.98828125 22.58203125 C-11.01446533 21.39327393 -11.04064941 20.2045166 -11.06762695 18.97973633 C-11.53603035 15.48086079 -12.384553 13.55148598 -14.5 10.75 C-16.80371421 9.57221688 -16.80371421 9.57221688 -19.5 9.75 C-23.79799298 11.32957082 -23.79799298 11.32957082 -26.5 14.75 C-26.65495763 16.99974161 -26.75010928 19.25371536 -26.81640625 21.5078125 C-26.83718735 22.17086395 -26.85796844 22.83391541 -26.87937927 23.51705933 C-26.94479231 25.63626694 -27.00372105 27.755599 -27.0625 29.875 C-27.10569309 31.31121081 -27.14930764 32.74740902 -27.19335938 34.18359375 C-27.30125909 37.70560344 -27.40039243 41.22770688 -27.5 44.75 C-33.11 44.75 -38.72 44.75 -44.5 44.75 C-44.5 29.24 -44.5 13.73 -44.5 -2.25 C-39.88 -2.25 -35.26 -2.25 -30.5 -2.25 C-29.84 -0.93 -29.18 0.39 -28.5 1.75 C-27.99210937 1.40066406 -27.48421875 1.05132812 -26.9609375 0.69140625 C-18.76880433 -4.72399264 -8.42075052 -6.52608165 0 0 Z " fill="#FFFFFF" transform="translate(418.5,43.25)"/>
<path d="M0 0 C5.99347813 6.59282595 6.63451352 13.2738365 6.59765625 21.8984375 C6.5962413 22.55582916 6.59482635 23.21322083 6.59336853 23.89053345 C6.58781762 25.96873731 6.57527465 28.04682927 6.5625 30.125 C6.55747864 31.54296718 6.55291685 32.96093607 6.54882812 34.37890625 C6.53871962 37.83601421 6.51913533 41.29288338 6.5 44.75 C0.89 44.75 -4.72 44.75 -10.5 44.75 C-10.55607422 41.69685547 -10.55607422 41.69685547 -10.61328125 38.58203125 C-10.66197494 36.59950244 -10.71077194 34.61697472 -10.76245117 32.63452148 C-10.79559806 31.26224042 -10.82366171 29.88982638 -10.84643555 28.51733398 C-10.88016766 26.53862234 -10.9340149 24.56028624 -10.98828125 22.58203125 C-11.01446533 21.39327393 -11.04064941 20.2045166 -11.06762695 18.97973633 C-11.53603035 15.48086079 -12.384553 13.55148598 -14.5 10.75 C-16.80371421 9.57221688 -16.80371421 9.57221688 -19.5 9.75 C-23.79799298 11.32957082 -23.79799298 11.32957082 -26.5 14.75 C-26.65495763 16.99974161 -26.75010928 19.25371536 -26.81640625 21.5078125 C-26.83718735 22.17086395 -26.85796844 22.83391541 -26.87937927 23.51705933 C-26.94479231 25.63626694 -27.00372105 27.755599 -27.0625 29.875 C-27.10569309 31.31121081 -27.14930764 32.74740902 -27.19335938 34.18359375 C-27.30125909 37.70560344 -27.40039243 41.22770688 -27.5 44.75 C-33.11 44.75 -38.72 44.75 -44.5 44.75 C-44.5 29.24 -44.5 13.73 -44.5 -2.25 C-39.88 -2.25 -35.26 -2.25 -30.5 -2.25 C-29.84 -0.93 -29.18 0.39 -28.5 1.75 C-27.99210937 1.40066406 -27.48421875 1.05132812 -26.9609375 0.69140625 C-18.76880433 -4.72399264 -8.42075052 -6.52608165 0 0 Z " fill="#FFFFFF" transform="translate(255.5,43.25)"/>
<path d="M0 0 C5.28 0 10.56 0 16 0 C16 17.16 16 34.32 16 52 C25.9 52 35.8 52 46 52 C46 56.29 46 60.58 46 65 C30.82 65 15.64 65 0 65 C0 43.55 0 22.1 0 0 Z " fill="#FFFFFF" transform="translate(280,23)"/>
<path d="M0 0 C5.28 0 10.56 0 16 0 C16 21.45 16 42.9 16 65 C10.72 65 5.44 65 0 65 C0 43.55 0 22.1 0 0 Z " fill="#FFFFFF" transform="translate(583,23)"/>
<path d="M0 0 C5.28 0 10.56 0 16 0 C16 21.45 16 42.9 16 65 C10.72 65 5.44 65 0 65 C0 43.55 0 22.1 0 0 Z " fill="#FFFFFF" transform="translate(177,23)"/>
<path d="M0 0 C5.61 0 11.22 0 17 0 C17 15.51 17 31.02 17 47 C11.39 47 5.78 47 0 47 C0 31.49 0 15.98 0 0 Z " fill="#FFFFFF" transform="translate(340,41)"/>
<path d="M0 0 C3.83054282 1.81080206 5.55709555 3.37716561 8 6.8125 C9.32312806 11.0299707 8.73110643 12.96075166 7 17 C3.53646326 22.24478421 1.04416447 23.65685234 -5 25 C-7.90227376 25.325555 -10.76863297 25.41443608 -13.6875 25.4375 C-14.43322266 25.47037109 -15.17894531 25.50324219 -15.94726562 25.53710938 C-19.86070153 25.57551062 -21.59326747 25.38620344 -24.4765625 22.6484375 C-26.43410889 19.24531839 -26.83463451 17.86966911 -26 14 C-20.13546676 4.91179476 -11.17300331 -2.20419793 0 0 Z " fill="#FFFFFF" transform="translate(84,103)"/>
<path d="M0 0 C2.76142665 1.01736771 3.68085371 1.36170741 5 4 C5.45523013 11.16987448 5.45523013 11.16987448 3.9375 13.9375 C0.910576 15.59742606 -1.55950849 15.88337317 -5 16 C-10.5862069 13.82758621 -10.5862069 13.82758621 -12 11 C-12.375 7.625 -12.375 7.625 -12 4 C-8.42634327 -0.22341249 -5.36372734 -0.58513389 0 0 Z " fill="#FFFFFF" transform="translate(352,20)"/>
</svg>
