<?xml version="1.0" encoding="utf-8"?>
<!-- Generator: Adobe Illustrator 27.0.1, SVG Export Plug-In . SVG Version: 6.00 Build 0)  -->
<svg version="1.1" id="Layer_1" xmlns="http://www.w3.org/2000/svg" xmlns:xlink="http://www.w3.org/1999/xlink" x="0px" y="0px"
	 viewBox="0 0 1920 1080" style="enable-background:new 0 0 1920 1080;" xml:space="preserve">
<style type="text/css">
	.st0{fill:#FEFEFE;}
	.st1{fill:#7C7CB2;}
	.st2{fill:#53568A;}
	.st3{fill:#7F7FB5;}
	.st4{fill:#7979AF;}
	.st5{fill:#8282B8;}
	.st6{fill:#4F527B;}
	.st7{fill:#707097;}
	.st8{fill:#73739A;}
	.st9{fill:#575A8E;}
	.st10{fill:#5B5D92;}
	.st11{fill:#64669A;}
	.st12{fill:#66689D;}
	.st13{fill:#5F6196;}
	.st14{fill:#5D5F93;}
	.st15{fill:#616398;}
	.st16{fill:#7576AB;}
	.st17{fill:#55588C;}
	.st18{fill:#8686BC;}
	.st19{fill:#8A89BF;}
	.st20{fill:#8484BA;}
	.st21{fill:#7778AD;}
	.st22{fill:#696A9F;}
	.st23{fill:#A3A0D8;}
	.st24{fill:#A7A3DB;}
	.st25{fill:#6F70A5;}
	.st26{fill:#7374A9;}
	.st27{fill:#6B6CA1;}
	.st28{fill:#7878AE;}
	.st29{fill:#7172A7;}
	.st30{fill:#A9A5DD;}
	.st31{fill:#6D6EA3;}
	.st32{fill:#9795CC;}
	.st33{fill:#8C8BC2;}
	.st34{fill:#9F9CD3;}
	.st35{fill:#9B98D0;}
	.st36{fill:#908FC6;}
	.st37{fill:#9291C7;}
	.st38{fill:#8E8DC4;}
	.st39{fill:#9492C9;}
	.st40{fill:#9794CC;}
	.st41{fill:#7B7BB1;}
	.st42{fill:#7D7DB3;}
	.st43{fill:#9391C8;}
	.st44{fill:#A09DD5;}
	.st45{fill:#8383B9;}
	.st46{fill:#A29FD7;}
	.st47{fill:#8181B7;}
	.st48{fill:#9997CE;}
	.st49{fill:#8685BC;}
	.st50{fill:#918FC6;}
	.st51{fill:#8888BE;}
	.st52{fill:#8C8BC1;}
	.st53{fill:#ABA7DF;}
	.st54{fill:#9B99D0;}
	.st55{fill:#9D9BD2;}
	.st56{fill:#8B89C0;}
	.st57{fill:#8D8CC2;}
	.st58{fill:#9E9BD3;}
	.st59{fill:#A5A1D9;}
	.st60{fill:#908EC5;}
	.st61{fill:#AA98E0;}
	.st62{fill:#74749E;}
	.st63{fill:#A892DE;}
	.st64{fill:#9390B3;}
	.st65{fill:#9A95BB;}
	.st66{fill:#75749C;}
	.st67{fill:#9996B9;}
	.st68{fill:#9E9ACE;}
	.st69{fill:#747499;}
	.st70{fill:#6E6E93;}
	.st71{fill:#9290B4;}
	.st72{fill:#6B6DA2;}
	.st73{fill:#6D6EA4;}
	.st74{fill:#7172A8;}
	.st75{fill:#7374AA;}
	.st76{fill:#6F70A6;}
	.st77{fill:#6D6D93;}
</style>
<g>
	<g>
		<path class="st0" d="M77.61,47c0,11.24,0,22.48,0.01,33.73c0,0.3-0.04,0.39-0.37,0.39c-24.13-0.01-48.25-0.01-72.38,0
			c-0.29,0-0.35-0.06-0.35-0.35c0.01-24.13,0.01-48.25,0-72.38C4.51,8.04,4.6,8,4.9,8c11.27,0.01,22.55,0.01,33.82,0.01
			c-0.03,0.25-0.24,0.2-0.39,0.21C36.7,8.34,35.1,8.58,33.5,8.91c-2.82,0.59-5.52,1.53-8.13,2.77c-1.6,0.73-3.09,1.63-4.56,2.59
			c-1.46,1.01-2.88,2.06-4.16,3.29c-0.98,0.8-1.84,1.73-2.68,2.68c-0.55,0.59-1.05,1.22-1.55,1.85c-0.5,0.66-1,1.33-1.47,2.02
			c-0.39,0.57-0.75,1.16-1.1,1.75c-0.43,0.71-0.86,1.43-1.2,2.19c-0.28,0.58-0.62,1.13-0.83,1.74c-0.27,0.57-0.51,1.16-0.72,1.76
			c-0.16,0.43-0.34,0.85-0.47,1.29c-0.18,0.48-0.32,0.98-0.46,1.47c-0.19,0.54-0.3,1.11-0.44,1.66c-0.12,0.42-0.19,0.86-0.29,1.28
			c-0.08,0.47-0.18,0.93-0.25,1.4c-0.12,0.58-0.14,1.16-0.26,1.74c0.01,0.31-0.05,0.61-0.09,0.91c-0.02,0.18-0.01,0.35-0.01,0.53
			c0,0.13-0.01,0.25-0.04,0.38c-0.06,0.17-0.04,0.35-0.05,0.53c0,0.34,0,0.69,0,1.03c0,0.16-0.01,0.32,0.01,0.49
			c0,0.22,0.01,0.44,0,0.66c-0.01,0.5,0,0.99-0.01,1.49c-0.03,0.27,0.09,0.52,0.09,0.78c0,0.2-0.01,0.41,0,0.61
			c0.02,0.12,0.05,0.25,0.07,0.37c0.04,0.56,0.12,1.12,0.2,1.68c0.04,0.4,0.12,0.8,0.19,1.19c0.09,0.59,0.23,1.16,0.35,1.74
			c0.11,0.49,0.25,0.98,0.36,1.47c0.09,0.38,0.21,0.75,0.37,1.1c1.73,2.27,4.82,2.42,6.88,0.59c0.58-0.55,1.13-1.12,1.7-1.69
			c0.5-0.49,0.99-0.98,1.48-1.48c0.53-0.52,1.05-1.04,1.57-1.57c0.53-0.52,1.05-1.04,1.57-1.57c0.53-0.52,1.05-1.04,1.57-1.57
			c0.47-0.46,0.92-0.92,1.38-1.38c0.47-0.46,0.92-0.92,1.38-1.38c0.5-0.49,0.99-0.98,1.47-1.48c0.53-0.52,1.05-1.05,1.57-1.57
			c0.65-0.62,1.25-1.28,1.91-1.88c0.6-0.46,1.21-0.89,1.93-1.14c1.68-0.59,3.22-0.35,4.62,0.76c0.53,0.37,0.9,0.89,1.26,1.4
			c0.36,0.55,0.56,1.15,0.68,1.79c0.15,0.68,0.05,1.35-0.09,2.02c-0.15,0.54-0.44,1.02-0.68,1.52c-0.39,0.61-0.88,1.12-1.4,1.62
			c-0.47,0.46-0.93,0.93-1.39,1.39c-0.65,0.64-1.29,1.29-1.93,1.93c-0.68,0.67-1.35,1.35-2.02,2.02c-0.47,0.46-0.93,0.92-1.39,1.39
			c-0.5,0.49-0.99,0.98-1.48,1.48c-0.53,0.52-1.05,1.04-1.57,1.57c-0.77,0.76-1.54,1.53-2.3,2.3c-0.99,0.98-1.97,1.97-2.95,2.95
			c-0.98,0.99-2,1.93-2.89,3c-0.77,1.02-1.04,2.17-0.87,3.43c0.18,0.99,0.67,1.8,1.36,2.52c0.04,0.02,0.07,0.05,0.1,0.08
			c0.15,0.15,0.31,0.29,0.5,0.38c0.62,0.41,1.3,0.62,2.02,0.72c0.31,0.01,0.62,0.01,0.94,0c0.73-0.1,1.41-0.32,2.03-0.73
			c0.11-0.06,0.22-0.12,0.33-0.19c0.07-0.04,0.14-0.09,0.2-0.14c1.17-0.79,2.11-1.83,3.1-2.82c1.05-1.04,2.09-2.09,3.13-3.13
			c0.99-0.98,1.97-1.96,2.95-2.95c0.99-0.98,1.97-1.96,2.95-2.95c0.74-0.73,1.48-1.47,2.21-2.21c0.53-0.52,1.05-1.04,1.57-1.57
			c0.5-0.49,0.99-0.99,1.48-1.48c0.55-0.56,1.12-1.1,1.73-1.6c0.46-0.34,0.92-0.67,1.45-0.88c1.63-0.64,3.14-0.46,4.52,0.66
			c0.13,0.11,0.27,0.2,0.39,0.32c0.4,0.42,0.73,0.89,0.99,1.4c0.24,0.45,0.37,0.94,0.47,1.43c0.07,0.46,0.03,0.91-0.06,1.36
			c-0.11,0.49-0.27,0.97-0.49,1.42c-0.28,0.56-0.66,1.05-1.06,1.53c-0.07,0.11-0.2,0.19-0.24,0.35c0.4,0.07,0.76-0.1,1.13-0.06
			c0.38,0,0.76,0,1.14,0c2.02,0.12,3.97,0.5,5.8,1.4c0.93,0.49,1.82,1.06,2.66,1.7c0.63,0.55,1.29,1.07,1.87,1.69
			c0.68,0.71,1.14,1.63,2.05,2.12c1.54,0.87,3.08,0.86,4.63,0c0.89-0.61,1.76-1.25,2.32-2.2c0.43-0.53,0.8-1.11,1.17-1.68
			c0.35-0.54,0.69-1.1,1.01-1.66c0.35-0.48,0.52-1.06,0.83-1.56c0.26-0.51,0.55-1.01,0.75-1.54c0.23-0.48,0.43-0.98,0.63-1.48
			c0.19-0.48,0.39-0.97,0.55-1.47c0.12-0.47,0.37-0.9,0.45-1.39c0.11-0.46,0.33-0.9,0.38-1.38c0.18-0.64,0.34-1.28,0.47-1.94
			c0.13-0.67,0.27-1.33,0.35-2.01c0.07-0.45,0.11-0.91,0.18-1.36c-0.01-0.26,0.06-0.5,0.09-0.76c0.02-0.18,0-0.36,0.03-0.54
			C77.44,47.09,77.46,46.98,77.61,47z"/>
		<path class="st0" d="M43.51,8.01c11.23,0,22.46,0,33.69-0.01c0.35,0,0.42,0.08,0.42,0.42c-0.01,11.23-0.01,22.46-0.01,33.69
			c-0.19,0-0.17-0.15-0.21-0.27c-0.01-0.15,0-0.31-0.03-0.46c-0.13-0.48-0.04-0.98-0.16-1.46c-0.02-0.38-0.09-0.75-0.15-1.12
			c-0.05-0.42-0.14-0.83-0.23-1.24c-0.11-0.4-0.16-0.82-0.25-1.23c-0.1-0.49-0.24-0.98-0.37-1.47c-0.18-0.49-0.28-1-0.43-1.49
			c-0.16-0.53-0.34-1.05-0.56-1.56c-0.24-0.69-0.5-1.37-0.81-2.03c-0.22-0.61-0.56-1.16-0.83-1.75c-0.34-0.76-0.78-1.47-1.2-2.19
			c-0.35-0.6-0.72-1.18-1.1-1.75c-0.47-0.68-0.96-1.36-1.48-2c-0.5-0.58-0.93-1.21-1.46-1.77c-0.88-0.96-1.74-1.95-2.78-2.76
			c-0.55-0.6-1.2-1.08-1.82-1.58c-0.75-0.6-1.52-1.17-2.32-1.7c-1.19-0.67-2.28-1.51-3.52-2.09c-0.35-0.16-0.69-0.34-1.04-0.5
			c-3.69-1.77-7.56-2.87-11.62-3.34c-0.44-0.05-0.88-0.11-1.33-0.12C43.75,8.21,43.54,8.26,43.51,8.01z"/>
		<path class="st1" d="M37.15,45.24c0.13-0.7,0.2-1.41,0.1-2.12c0.2-0.19,0.46-0.15,0.7-0.15c1.58-0.01,3.16,0,4.74,0
			c11.28,0,22.56,0,33.84,0c0.3,0,0.62-0.04,0.91,0.08c0.25,0.23,0.01,0.56,0.16,0.81c0,0.46,0,0.92,0,1.38
			c-0.05,0.03-0.11,0.05-0.17,0.05c-0.35,0.02-0.71,0-1.06,0c-12.91,0-25.82,0-38.73,0C37.48,45.3,37.31,45.33,37.15,45.24z"/>
		<path class="st2" d="M43.51,8.01c0.41,0.19,0.86,0.12,1.28,0.16c4.22,0.4,8.23,1.56,12.06,3.37c0.04,0.02,0.08,0.05,0.11,0.08
			c-0.04,0.2-0.21,0.19-0.36,0.22c-0.17,0.03-0.34,0.01-0.51,0.01c-9.99,0-19.98,0-29.97-0.01c-0.29,0-0.66,0.15-0.86-0.22
			c2.29-1.15,4.7-1.99,7.18-2.59c2.01-0.49,4.05-0.84,6.13-0.93c0.06,0,0.12-0.02,0.14-0.09c0.25,0,0.49,0,0.74,0
			c0.43,0.08,0.86,0.08,1.29,0c0.25,0,0.49,0,0.74,0c0.43,0.08,0.86,0.08,1.29,0C43.02,8.01,43.26,8.01,43.51,8.01z"/>
		<path class="st3" d="M37.15,45.24c0.17-0.11,0.35-0.09,0.54-0.09c13.12,0,26.23,0,39.35,0c0.16,0,0.34-0.06,0.48,0.09
			c0.12,0.36-0.04,0.75,0.09,1.11c0,0.18,0,0.37,0,0.55c-0.26,0.18-0.56,0.15-0.85,0.15c-4.04,0-8.07,0-12.11,0
			c-9.06,0-18.11,0-27.17,0c-0.25,0-0.49,0.02-0.73-0.03c-0.17-0.04-0.34-0.09-0.25-0.33C36.71,46.21,36.93,45.72,37.15,45.24z"/>
		<path class="st4" d="M77.51,43.12c-13.42,0-26.84,0-40.26,0c-0.14-0.61-0.38-1.19-0.67-1.75c0.13-0.14,0.3-0.14,0.47-0.15
			c0.18-0.01,0.37-0.01,0.55-0.01c12.94,0,25.88,0,38.81,0c0.31,0,0.61-0.04,0.91,0.06c0.25,0.12,0.08,0.37,0.18,0.54
			c0.04,0.09-0.03,0.23,0.11,0.28c0,0.18,0,0.37,0,0.55C77.49,42.8,77.63,42.99,77.51,43.12z"/>
		<path class="st5" d="M36.49,46.69c0.02,0.14,0.1,0.22,0.25,0.21c0.14,0,0.28,0,0.41,0c13.49,0,26.97,0,40.46,0
			c0,0.03,0,0.06,0,0.09c-0.1,0.03-0.08,0.12-0.11,0.19c-0.06,0.18-0.05,0.36-0.01,0.54c-0.03,0.25-0.06,0.5-0.09,0.74
			c-0.17,0.17-0.4,0.15-0.61,0.15c-0.66,0.01-1.32,0-1.98,0c-12.9,0-25.79,0-38.69,0c-0.25,0-0.49,0.02-0.73-0.03
			c-0.15-0.03-0.37-0.03-0.28-0.3C35.59,47.77,36.08,47.26,36.49,46.69z"/>
		<path class="st6" d="M40.74,8.01c-0.43,0.15-0.86,0.15-1.29,0C39.88,8.01,40.31,8.01,40.74,8.01z"/>
		<path class="st6" d="M42.77,8.01c-0.43,0.15-0.86,0.15-1.29,0C41.91,8.01,42.34,8.01,42.77,8.01z"/>
		<path class="st7" d="M77.51,43.12c0.03-0.15-0.06-0.33,0.09-0.46c0,0.4,0,0.8,0,1.2C77.42,43.64,77.56,43.37,77.51,43.12z"/>
		<path class="st8" d="M77.61,46.35c-0.19-0.36-0.05-0.74-0.09-1.11c0.03,0,0.06,0,0.09,0C77.61,45.61,77.61,45.98,77.61,46.35z"/>
		<path class="st9" d="M61.47,14.21c1.43,0.92,2.75,1.99,4.02,3.12c0.05,0.05,0.08,0.12,0.12,0.18c-0.08,0.19-0.25,0.21-0.42,0.23
			c-0.15,0.02-0.31,0.01-0.46,0.01c-15.75,0-31.49,0-47.24,0c-0.17,0-0.34,0.01-0.51-0.02c-0.17-0.02-0.34-0.05-0.42-0.24
			c1.28-1.24,2.69-2.31,4.17-3.29c0.3-0.07,0.6-0.08,0.91-0.08c12.95,0,25.9,0,38.85,0C60.84,14.12,61.15,14.16,61.47,14.21z"/>
		<path class="st10" d="M16.57,17.49c0.18,0.11,0.38,0.1,0.58,0.1c15.98,0,31.95,0,47.93,0c0.18,0,0.37,0.02,0.54-0.09
			c0.77,0.54,1.37,1.24,2.02,1.91c0.27,0.27,0.51,0.57,0.76,0.85c-0.13,0.14-0.3,0.14-0.47,0.15c-0.17,0.01-0.34,0.01-0.51,0.01
			c-17.51,0-35.02,0-52.53,0c-0.2,0-0.4,0.02-0.6-0.01c-0.15-0.02-0.36,0-0.38-0.24C14.73,19.2,15.6,18.3,16.57,17.49z"/>
		<path class="st11" d="M72.45,25.79c0.47,0.7,0.88,1.44,1.22,2.21c-0.13,0.14-0.3,0.14-0.47,0.15c-0.17,0.01-0.34,0.01-0.51,0.01
			c-21.06,0-42.11,0-63.17,0c-0.33,0-0.68,0.09-0.97-0.15c0.34-0.77,0.75-1.51,1.22-2.21c0.18-0.06,0.36-0.06,0.55-0.06
			c20.53,0,41.06,0,61.59,0C72.09,25.74,72.27,25.74,72.45,25.79z"/>
		<path class="st12" d="M8.55,28c0.17,0,0.34,0.01,0.51,0.01c21.37,0,42.74,0,64.11,0c0.17,0,0.34,0,0.51-0.01
			c0.33,0.56,0.61,1.14,0.83,1.75c-0.23,0.22-0.52,0.15-0.79,0.15c-3.88,0-7.76,0-11.65,0c-5.51,0-11.02,0-16.53,0
			c-0.37,0-0.74,0.01-1.09,0.11c-0.17,0.04-0.33-0.01-0.49-0.08c-1.28-0.52-2.58-0.61-3.88-0.07c-0.14,0.06-0.29,0.1-0.45,0.1
			c-0.4-0.06-0.8-0.06-1.19-0.06c-9.94,0-19.89,0-29.83,0c-0.3,0-0.62,0.08-0.88-0.15C7.92,29.13,8.23,28.57,8.55,28z"/>
		<path class="st13" d="M69.86,22.04c0.57,0.61,1.03,1.3,1.48,2c-0.11,0.18-0.29,0.21-0.48,0.23c-0.2,0.02-0.4,0.01-0.6,0.01
			c-19.44,0-38.87,0-58.31,0c-0.37,0-0.78,0.12-1.08-0.24c0.44-0.71,0.94-1.38,1.48-2.03c0.97,0.06,1.93,0.03,2.9,0.03
			c17.74,0,35.48,0,53.22,0C68.94,22.05,69.4,22.04,69.86,22.04z"/>
		<path class="st14" d="M69.86,22.04c-0.07,0.11-0.18,0.16-0.31,0.16c-0.11,0-0.21,0-0.32,0c-18.74,0-37.47,0-56.21,0
			c-0.23,0-0.5,0.11-0.66-0.18c0.47-0.66,1-1.27,1.56-1.85c0.13,0.16,0.31,0.1,0.47,0.1c18,0,36.01,0,54.01,0
			C68.95,20.81,69.4,21.43,69.86,22.04z"/>
		<path class="st15" d="M10.88,24.05c0.24,0.07,0.48,0.1,0.72,0.1c19.67,0,39.34,0,59.01,0c0.25,0,0.49-0.03,0.72-0.1
			c0.41,0.56,0.79,1.13,1.11,1.75c-0.17,0.1-0.35,0.09-0.54,0.09c-20.54,0-41.07,0-61.61,0c-0.18,0-0.37,0.01-0.54-0.1
			C10.09,25.18,10.47,24.6,10.88,24.05z"/>
		<path class="st16" d="M77.15,38.79c0.1,0.36,0.18,0.73,0.16,1.11c-0.09,0.18-0.25,0.21-0.42,0.23c-0.18,0.02-0.37,0.01-0.55,0.01
			c-13.46,0-26.93,0-40.39,0c-0.18,0-0.37,0.02-0.54-0.06c-2.03-1.55-4.27-1.32-6.19,0.15c-0.11,0.08-0.22,0.15-0.34,0.23
			c-0.38,0.13-0.76,0.04-1.14,0.04c-7.35,0.01-14.69,0.01-22.04,0c-0.3,0-0.62,0.08-0.88-0.15c0.11-0.58,0.1-1.18,0.27-1.75
			c0.23-0.21,0.52-0.15,0.79-0.15c3.61,0,7.22,0,10.83,0c7.33,0,14.65,0,21.98,0c0.21,0,0.43,0.03,0.64,0
			c0.19-0.05,0.36,0.01,0.53,0.1c1.43,0.75,2.87,0.88,4.35,0.12c0.16-0.08,0.33-0.16,0.53-0.08c0.35,0.06,0.7,0.05,1.06,0.05
			c10.16,0,20.32,0,30.47,0C76.56,38.64,76.88,38.58,77.15,38.79z"/>
		<path class="st17" d="M61.47,14.21c-0.15,0.12-0.33,0.07-0.49,0.07c-13.25,0-26.5,0-39.75,0c-0.16,0-0.34,0.05-0.49-0.07
			c1.42-1.01,2.94-1.85,4.51-2.59c0.14,0.13,0.32,0.08,0.48,0.08c10.24,0,20.49,0,30.73,0c0.16,0,0.34,0.06,0.48-0.08
			c1.39,0.61,2.68,1.41,3.95,2.23C61.1,13.97,61.29,14.09,61.47,14.21z"/>
		<path class="st18" d="M77.22,49.85c-0.07,0.68-0.18,1.36-0.37,2.02c-0.16,0.09-0.33,0.06-0.5,0.06c-14.55,0-29.09,0-43.64,0
			c-0.21,0-0.43,0.02-0.64-0.03c-0.15-0.03-0.37-0.03-0.28-0.3c0.61-0.68,1.27-1.32,1.93-1.94c0.67,0.05,1.35,0.04,2.03,0.04
			c13.51,0,27.02,0,40.53,0C76.61,49.71,76.94,49.62,77.22,49.85z"/>
		<path class="st19" d="M31.8,51.61c0.02,0.13,0.1,0.18,0.22,0.18c0.14,0,0.28,0,0.41,0c14.58,0,29.16,0,43.75,0
			c0.23,0,0.46-0.05,0.67,0.09c-0.08,0.66-0.25,1.31-0.46,1.94c-0.11,0.08-0.23,0.07-0.35,0.07c-8.09-0.03-16.18-0.01-24.26-0.01
			c-0.83,0-1.66-0.03-2.48,0.05c-0.63-0.52-1.27-1.02-2.08-1.21c-1.44-0.34-2.72,0.04-3.9,0.89c-0.11,0.08-0.23,0.15-0.34,0.22
			c-0.11,0.05-0.23,0.08-0.36,0.08c-4.08-0.07-8.16-0.01-12.23-0.04c-0.22,0-0.5,0.08-0.62-0.24C30.43,52.93,31.09,52.25,31.8,51.61
			z"/>
		<path class="st20" d="M77.22,49.85c-14.29,0-28.58,0-42.88,0c-0.22,0-0.47,0.09-0.61-0.18c0.43-0.49,0.9-0.94,1.39-1.37
			c0.02,0.1,0.06,0.17,0.18,0.17c0.12,0,0.25,0,0.37,0c13.91,0,27.83,0,41.74,0C77.35,48.93,77.29,49.39,77.22,49.85z"/>
		<path class="st21" d="M35.41,40.08c0.25-0.08,0.51-0.09,0.77-0.09c13.5,0,27.01,0,40.51,0c0.21,0,0.43,0.04,0.63-0.09
			c0.19,0.47,0.04,0.99,0.18,1.47c-0.02,0.04-0.05,0.04-0.08,0c-13.46,0-26.92,0-40.38,0c-0.15,0-0.31,0-0.46,0
			C36.22,40.92,35.85,40.46,35.41,40.08z"/>
		<path class="st22" d="M7.72,29.75c5.13,0,10.26,0.01,15.39,0.01c5.1,0,10.2,0,15.3,0c0.44,0,0.89-0.01,1.32,0.1
			c-0.59,0.6-1.23,1.15-1.85,1.71c-0.04,0.04-0.12,0.02-0.18,0.01c-10.04-0.02-20.07,0-30.11-0.01c-0.2,0-0.4,0.04-0.59-0.06
			C7.17,30.9,7.43,30.32,7.72,29.75z"/>
		<path class="st23" d="M54.57,70.59c0.64,0.92,0.87,1.94,0.72,3.05c-0.1,0.19-0.28,0.22-0.47,0.23c-0.18,0.01-0.37,0.01-0.55,0.01
			c-5.51,0-11.02,0-16.53,0c-0.2,0-0.46,0.11-0.6-0.16c1.07-1.11,2.12-2.24,3.31-3.22c0.17-0.04,0.33-0.05,0.5-0.05
			c4.26,0.01,8.52,0,12.78,0.01C54.02,70.44,54.31,70.42,54.57,70.59z"/>
		<path class="st24" d="M37.14,73.71c0.22,0.09,0.45,0.01,0.67,0.01c5.62,0.01,11.24,0.01,16.86,0c0.21,0,0.43,0.04,0.63-0.09
			c-0.22,1.12-0.75,2.1-1.38,3.03c-5.62-0.07-11.24-0.01-16.86-0.03c-0.2,0-0.4,0.01-0.59-0.08c-0.19-0.12-0.15-0.31-0.12-0.49
			c0.02-0.17,0.04-0.33,0-0.49C36.5,74.91,36.64,74.24,37.14,73.71z"/>
		<path class="st25" d="M5.63,35.93c0.07-0.57,0.23-1.12,0.44-1.66c0.13-0.18,0.32-0.15,0.5-0.15c9.71,0.01,19.42,0,29.14,0
			c0.17,0,0.34-0.01,0.51,0c0.32,0.01,0.59-0.04,0.64-0.42c0.01-0.08,0.07-0.14,0.14-0.18c0.19,0.06,0.19,0.23,0.19,0.38
			c-0.01,0.58,0.12,1.15,0.15,1.72c-0.02,0.25-0.19,0.33-0.41,0.35c-0.23,0.03-0.46,0.02-0.69,0.02c-10.04,0-20.07,0-30.11,0
			C5.96,35.99,5.79,36.02,5.63,35.93z"/>
		<path class="st26" d="M39.45,38.52c-0.16,0.15-0.35,0.08-0.53,0.08c-11.28,0-22.56,0-33.83,0c0.02-0.47,0.12-0.93,0.26-1.38
			c0.24-0.2,0.52-0.15,0.79-0.15c3.47,0,6.94,0,10.41,0c7.03,0,14.06,0,21.1,0c0.08,0,0.15,0,0.23,0.01c0.12,0,0.25-0.01,0.34,0.09
			C38.66,37.6,39.07,38.05,39.45,38.52z"/>
		<path class="st27" d="M7,31.51c0.18-0.11,0.38-0.09,0.58-0.09c9.91,0,19.81,0,29.72,0c0.2,0,0.4-0.02,0.58,0.09
			c-0.06,0.54-0.42,0.93-0.69,1.37c-0.25,0.2-0.55,0.16-0.84,0.16c-2.89,0-5.77,0-8.66,0c-6.73,0-13.45,0-20.18,0
			c-0.21,0-0.43,0.01-0.64-0.02C6.73,33,6.56,33.01,6.54,32.79C6.61,32.33,6.81,31.92,7,31.51z"/>
		<path class="st28" d="M4.82,40.36c7.75,0,15.5,0,23.25,0c0.28,0,0.55,0.02,0.81,0.11c-0.63,0.61-1.25,1.22-1.88,1.83
			c-0.2,0.14-0.43,0.15-0.66,0.15c-7,0-14,0-21-0.01c-0.23,0-0.54,0.11-0.65-0.25c0.01-0.12,0.02-0.24,0.03-0.36
			c0.06-0.18,0.04-0.36,0.01-0.54C4.76,40.98,4.79,40.67,4.82,40.36z"/>
		<path class="st29" d="M38.07,37.15c-0.18,0.14-0.38,0.07-0.58,0.07c-10.71,0-21.42,0-32.14,0c0.02-0.45,0.12-0.88,0.28-1.29
			c0.2-0.13,0.41-0.09,0.63-0.09c10.14,0,20.29,0,30.43-0.01c0.2,0,0.54,0.17,0.54-0.27c0.07-0.02,0.13,0,0.15,0.06
			c0.19,0.48,0.45,0.94,0.7,1.39C38.11,37.06,38.09,37.11,38.07,37.15z"/>
		<path class="st30" d="M36.41,76.49c5.64,0,11.28,0,16.92,0c0.21,0,0.44-0.05,0.58,0.18c-0.72,0.94-1.32,1.99-2.33,2.67
			c-0.27,0.18-0.56,0.32-0.88,0.37c-0.1-0.2,0.1-0.25,0.23-0.39c-0.2-0.02-0.36-0.01-0.52-0.01c-4.14,0-8.27,0-12.41,0
			c-0.23,0-0.45,0.04-0.68,0.06c-0.57-0.57-0.82-1.29-0.98-2.05C36.46,77.04,36.21,76.75,36.41,76.49z"/>
		<path class="st31" d="M6.54,32.79c0.13,0.16,0.31,0.1,0.47,0.1c9.89,0,19.79,0,29.68,0c0.2,0,0.4,0.03,0.53-0.19
			c0.17,0.33,0.06,0.59-0.18,0.83c-0.01,0.01-0.02,0.02-0.03,0.04c-0.13,0.2,0.07,0.51-0.13,0.64c-0.23,0.15-0.54,0.06-0.81,0.06
			c-9.73,0-19.45,0-29.18,0c-0.27,0-0.55,0-0.82,0C6.17,33.76,6.32,33.27,6.54,32.79z"/>
		<path class="st32" d="M20.1,63.31c0.95-1.02,1.94-1.99,2.95-2.95c0.18-0.04,0.36-0.05,0.55-0.05c3.86,0,7.72,0,11.58,0
			c0.17,0,0.34-0.01,0.5,0.03c0.18,0.04,0.37,0.07,0.37,0.32c-0.98,0.98-1.97,1.97-2.95,2.95c-0.18,0.01-0.36,0.04-0.55,0.04
			c-3.84,0-7.67,0-11.51,0c-0.18,0-0.37,0.01-0.55-0.03C20.31,63.58,20.12,63.55,20.1,63.31z"/>
		<path class="st33" d="M49.3,53.93c0.17-0.24,0.43-0.2,0.67-0.2c8.58,0,17.17,0,25.75,0c0.23,0,0.46,0.03,0.68,0.09
			c-0.03,0.49-0.26,0.92-0.38,1.38c-0.25,0.22-0.55,0.15-0.84,0.15c-6.27,0-12.53,0-18.8,0c-1.8,0-3.59,0-5.39,0
			c-0.26,0-0.53,0.04-0.75-0.15C49.96,54.75,49.64,54.33,49.3,53.93z"/>
		<path class="st34" d="M16.31,69.86c-0.25-1.35,0.04-2.56,0.92-3.62c0.18-0.02,0.36-0.05,0.55-0.05c3.8,0,7.6,0,11.39,0
			c0.2,0,0.4-0.01,0.59,0.04c0.17,0.05,0.38,0.06,0.39,0.31c-1.05,1.04-2.09,2.09-3.14,3.13c-0.47-0.07-0.95-0.06-1.42-0.06
			c-2.66,0-5.31,0-7.97,0C17.17,69.63,16.72,69.62,16.31,69.86z"/>
		<path class="st35" d="M30.15,66.55c-0.22-0.21-0.5-0.2-0.77-0.2c-3.86,0-7.73,0-11.59,0c-0.19,0-0.4,0.08-0.56-0.1
			c0.87-1.06,1.87-1.99,2.87-2.94c0.18,0.22,0.44,0.18,0.68,0.18c3.92,0,7.84,0,11.77,0c0.19,0,0.4-0.08,0.56,0.11
			C32.12,64.59,31.14,65.57,30.15,66.55z"/>
		<path class="st36" d="M75.56,56.58c-0.14,0.51-0.32,1-0.54,1.47c-0.25,0.21-0.55,0.15-0.84,0.15c-6.5,0-13,0-19.5,0
			c-1.13,0-2.27,0-3.4,0c-0.23,0-0.47,0.03-0.65-0.15c0.05-0.49,0.13-0.97,0.05-1.47c0.24-0.23,0.55-0.16,0.83-0.16
			c5.22,0,10.44,0,15.66,0c2.55,0,5.1,0,7.65,0C75.07,56.43,75.34,56.38,75.56,56.58z"/>
		<path class="st37" d="M50.62,58.05c8.13,0,16.27,0,24.4,0c-0.2,0.5-0.36,1.02-0.65,1.47c-0.25,0.21-0.55,0.15-0.84,0.15
			c-6.9,0-13.81,0-20.71,0c-0.67,0-1.35,0.01-2.02-0.01c-0.24,0-0.5,0-0.66-0.24C50.3,58.98,50.46,58.51,50.62,58.05z"/>
		<path class="st38" d="M75.56,56.58c-8.08,0-16.16,0-24.25,0c-0.21,0-0.43,0-0.64,0.01c-0.09-0.48-0.26-0.94-0.43-1.39
			c8.59,0,17.19,0,25.78,0C75.94,55.69,75.71,56.12,75.56,56.58z"/>
		<path class="st39" d="M50.13,59.44c0.24,0.07,0.47,0.1,0.72,0.1c7.84,0,15.67,0,23.51,0c-0.15,0.56-0.47,1.05-0.73,1.57
			c-0.43,0.02-0.86-0.04-1.28-0.04c-7.46,0.01-14.92,0.01-22.38,0c-0.3,0-0.62,0.08-0.88-0.16C49.44,60.41,49.79,59.92,50.13,59.44z
			"/>
		<path class="st40" d="M49.1,60.9c2.44,0,4.88,0.01,7.32,0.01c5.51,0,11.02,0,16.53,0c0.25,0,0.49-0.01,0.69,0.18
			c-0.3,0.51-0.49,1.08-0.83,1.57c-0.21,0.08-0.42,0.06-0.64,0.06c-4.74,0-9.47,0-14.21,0c-0.3,0-0.61-0.03-0.91,0.05
			c-1.2-0.52-2.42-0.98-3.73-1.16c-0.69-0.1-1.39-0.17-2.08-0.25c-0.43-0.06-0.85-0.06-1.28,0c-0.32,0.03-0.64,0.07-0.96,0.1
			c-0.1,0.01-0.24,0.05-0.3-0.05c-0.09-0.14,0.08-0.21,0.15-0.29C48.93,61.04,49.02,60.97,49.1,60.9z"/>
		<path class="st41" d="M4.69,42.19c0.14,0.17,0.34,0.1,0.52,0.1c7.26,0,14.53,0,21.79,0c-0.49,0.55-1.01,1.07-1.57,1.57
			c-0.12,0.08-0.25,0.11-0.39,0.11c-3.93-0.11-7.85-0.03-11.78-0.04c-2.58-0.01-5.15,0-7.73,0c-0.26,0-0.52,0.03-0.77-0.09
			c-0.2-0.2-0.08-0.45-0.1-0.68c-0.02-0.16,0.02-0.33-0.03-0.48C4.62,42.5,4.59,42.34,4.69,42.19z"/>
		<path class="st42" d="M4.7,43.77c5.87,0,11.74,0,17.62,0c1.04,0,2.08-0.06,3.12,0.09c-0.46,0.52-0.95,1.01-1.47,1.47
			c-0.11,0.07-0.23,0.08-0.35,0.08c-6.06-0.06-12.11-0.01-18.17-0.03c-0.21,0-0.43,0.01-0.64-0.06c-0.22-0.09-0.1-0.31-0.18-0.45
			c0-0.22,0-0.44,0-0.66c0.07-0.13,0.01-0.27,0.04-0.41C4.68,43.8,4.69,43.78,4.7,43.77z"/>
		<path class="st43" d="M36.05,60.66c-0.17-0.24-0.43-0.2-0.67-0.2c-3.94,0-7.88,0-11.82,0c-0.17,0-0.37,0.07-0.52-0.09
			c0.77-0.77,1.54-1.54,2.3-2.3c0.46,0.05,0.92,0.04,1.38,0.04c3.49,0,6.98,0,10.48,0c0.21,0,0.43-0.02,0.64,0.02
			c0.19,0.04,0.41,0.05,0.42,0.33C37.53,59.18,36.79,59.92,36.05,60.66z"/>
		<path class="st44" d="M54.57,70.59c-4.53,0-9.07,0-13.6,0c-0.19,0-0.37,0-0.53-0.1c0.91-0.89,1.86-1.73,2.95-2.4
			c0.29-0.06,0.58-0.04,0.87-0.04c2.27,0,4.55,0,6.82,0c0.37,0,0.74,0,1.1,0.05C53.19,68.73,53.97,69.58,54.57,70.59z"/>
		<path class="st3" d="M4.7,45.24c5.98,0,11.96,0,17.94,0c0.44,0,0.89-0.03,1.32,0.09c-0.43,0.49-0.89,0.95-1.38,1.38
			c-0.12,0.08-0.26,0.07-0.4,0.07c-5.51-0.03-11.01,0-16.52-0.01c-0.21,0-0.43,0.01-0.64-0.02c-0.17-0.02-0.35-0.04-0.36-0.27
			C4.68,46.07,4.61,45.65,4.7,45.24z"/>
		<path class="st45" d="M21.2,48.1c-0.49,0.55-1.01,1.07-1.57,1.57c-0.12,0.08-0.26,0.08-0.4,0.08c-4.46-0.05-8.92-0.01-13.38-0.03
			c-0.3,0-0.57,0.1-0.86,0.13c-0.1-0.58-0.23-1.15-0.19-1.75c0.19-0.27,0.48-0.24,0.75-0.24c1.17-0.01,2.33,0,3.5,0
			c3.68,0,7.37,0,11.05,0C20.48,47.86,20.88,47.81,21.2,48.1z"/>
		<path class="st46" d="M16.31,69.86c0.09-0.34,0.32-0.39,0.65-0.38c3.17,0.01,6.34,0.01,9.51,0.01c0.21,0,0.44-0.06,0.56,0.2
			c-0.72,0.73-1.39,1.52-2.19,2.16c-0.29,0.23-0.62,0.47-0.96,0.68c-0.04-0.37-0.33-0.32-0.57-0.32c-1.64-0.01-3.29-0.01-4.93,0
			c-0.23,0-0.47-0.01-0.6,0.25c-0.43-0.23-0.64-0.64-0.87-1.03C16.62,70.94,16.33,70.45,16.31,69.86z"/>
		<path class="st47" d="M21.2,48.1c-1.31-0.18-2.63-0.08-3.94-0.09c-3.91-0.02-7.82,0-11.73-0.01c-0.25,0-0.49,0.02-0.72,0.09
			c-0.07-0.08-0.12-0.17-0.08-0.28c0.05-0.21,0.05-0.42,0-0.63c-0.01-0.25-0.13-0.49-0.09-0.75c0.02-0.04,0.05-0.04,0.07,0
			c0.07,0.3,0.32,0.18,0.49,0.18c4.19,0.01,8.38,0.01,12.56,0.01c1.37,0,2.73,0,4.1,0c0.25,0,0.49,0.02,0.72,0.09
			C22.15,47.21,21.69,47.67,21.2,48.1z"/>
		<path class="st48" d="M57.05,62.77c0.06-0.31,0.31-0.2,0.48-0.2c2.55-0.01,5.1,0,7.64,0c2.35,0,4.7,0,7.05,0
			c0.2,0,0.4-0.03,0.58,0.09c-0.34,0.55-0.68,1.11-1.01,1.66c-0.12,0.08-0.26,0.07-0.4,0.07c-3.66-0.02-7.32,0-10.98-0.01
			c-0.26,0-0.52,0.01-0.78,0.05C58.8,63.83,57.94,63.27,57.05,62.77z"/>
		<path class="st49" d="M4.99,49.85c0.13-0.22,0.32-0.28,0.57-0.28c4.46,0.01,8.92,0,13.38,0.01c0.23,0,0.45,0.06,0.68,0.09
			c-0.49,0.55-1.01,1.07-1.57,1.57c-0.16,0.06-0.33,0.06-0.5,0.06c-3.86-0.01-7.73,0-11.59-0.01c-0.28,0-0.6,0.07-0.79-0.23
			C5.11,50.65,5,50.26,4.99,49.85z"/>
		<path class="st50" d="M38.26,58.44c-0.17-0.24-0.43-0.2-0.67-0.2c-3.92,0-7.84,0-11.76-0.01c-0.17,0-0.42,0.12-0.49-0.18
			c0.5-0.55,1.02-1.07,1.57-1.56c2.73,0.07,5.46,0.02,8.19,0.03c1.36,0.01,2.73-0.01,4.09,0.01c0.25,0,0.59-0.07,0.63,0.34
			C39.31,57.4,38.79,57.92,38.26,58.44z"/>
		<path class="st51" d="M5.18,51.05c0.18,0.12,0.38,0.09,0.58,0.09c3.89,0,7.78,0,11.67,0c0.21,0,0.43-0.03,0.63,0.09
			c-0.49,0.55-1.01,1.08-1.57,1.57c-0.2,0.14-0.43,0.15-0.66,0.15c-3.22,0-6.45,0-9.67,0c-0.21,0-0.43,0.02-0.61-0.15
			C5.39,52.23,5.27,51.64,5.18,51.05z"/>
		<path class="st52" d="M29.77,53.63c0.15,0.16,0.35,0.09,0.52,0.09c3.77,0,7.54,0,11.32,0c0.46,0,0.92-0.03,1.37,0.1
			c-0.56,0.53-1.12,1.05-1.68,1.58c-0.33-0.06-0.67-0.06-1.01-0.06c-3.65,0-7.29,0-10.94,0c-0.2,0-0.4,0.01-0.6-0.02
			c-0.18-0.03-0.38-0.06-0.37-0.32C28.81,54.51,29.29,54.07,29.77,53.63z"/>
		<path class="st38" d="M28.39,55.01c0.12,0.26,0.36,0.19,0.57,0.19c3.94,0,7.88,0,11.82,0.01c0.19,0,0.45-0.13,0.53,0.2
			c-0.49,0.49-0.98,0.98-1.47,1.47c-0.13-0.28-0.39-0.2-0.6-0.2c-3.94,0-7.88,0-11.81-0.01c-0.17,0-0.42,0.12-0.5-0.18
			C27.38,55.97,27.87,55.48,28.39,55.01z"/>
		<path class="st53" d="M37.32,79.36c0.07-0.11,0.12-0.2,0.3-0.2c4.56,0.01,9.11,0.01,13.67,0.01c0.02,0,0.04,0.03,0.07,0.05
			c-0.13,0.29-0.56,0.16-0.66,0.48c-0.27,0.04-0.54,0.07-0.81,0.11c-0.16,0.1-0.34,0.09-0.52,0.08c-0.17-0.01-0.32,0.03-0.41,0.19
			c-0.37,0.32-0.85,0.26-1.29,0.35c-0.77,0.15-1.55,0.24-2.33,0.36c-0.15-0.04-0.29-0.05-0.44,0.01c-0.16,0.03-0.32,0.06-0.48,0.09
			c-0.21-0.05-0.42-0.05-0.63,0c-0.2,0-0.37,0.13-0.58,0.09c-0.35-0.06-0.71-0.01-1.06-0.03c-0.22,0.02-0.45-0.04-0.67,0.03
			c-0.25,0-0.5,0-0.76,0c-0.2-0.07-0.41-0.02-0.61-0.03c-0.25,0.03-0.51-0.05-0.77,0.03c-0.16-0.31-0.55-0.29-0.76-0.52
			c-0.08-0.15-0.23-0.2-0.35-0.28l0,0c-0.09-0.07-0.16-0.16-0.28-0.18C37.72,79.82,37.5,79.6,37.32,79.36z"/>
		<path class="st54" d="M59.63,64.43c0.03-0.22,0.19-0.2,0.35-0.2c3.79,0,7.58,0,11.37,0c0.15,0,0.3,0.06,0.45,0.09
			c-0.37,0.57-0.71,1.16-1.17,1.66c-0.13,0.07-0.26,0.07-0.4,0.07c-2.64-0.03-5.28-0.01-7.92-0.02c-0.28,0-0.55,0.03-0.83,0.06
			C60.86,65.54,60.24,64.99,59.63,64.43z"/>
		<path class="st55" d="M61.47,66.1c0.09-0.22,0.28-0.21,0.46-0.21c2.72,0,5.43,0,8.15,0c0.18,0,0.36,0.06,0.54,0.09
			c-0.52,0.99-1.41,1.61-2.3,2.22c-0.23-0.11-0.48-0.15-0.74-0.15c-1.11,0-2.23,0-3.34,0c-0.26,0-0.5,0.04-0.74,0.15
			c-0.29-0.11-0.53-0.31-0.72-0.53C62.33,67.16,61.9,66.62,61.47,66.1z"/>
		<path class="st56" d="M5.55,52.8c3.65,0,7.3,0,10.95,0c-0.46,0.52-0.95,1.01-1.47,1.47c-0.2,0.14-0.43,0.15-0.66,0.15
			c-2.61,0-5.22,0-7.83,0c-0.21,0-0.43,0.02-0.61-0.15C5.8,53.78,5.67,53.29,5.55,52.8z"/>
		<path class="st57" d="M5.92,54.28c3.04,0,6.07,0,9.11,0c-0.52,0.59-1.08,1.14-1.66,1.66c-0.22,0.15-0.46,0.14-0.71,0.14
			c-1.51,0-3.03-0.03-4.54,0.01c-0.73,0.02-1.36-0.08-1.81-0.71C6.1,55.04,6.01,54.66,5.92,54.28z"/>
		<path class="st58" d="M52.19,68.09c-0.18,0.11-0.38,0.1-0.58,0.1c-2.55,0-5.09,0-7.64,0c-0.2,0-0.4,0.01-0.58-0.1
			c0.78-0.67,1.74-0.92,2.7-1.16c1.25-0.3,2.52-0.29,3.76,0.07C50.68,67.25,51.48,67.58,52.19,68.09z"/>
		<path class="st59" d="M17.78,72.45c-0.06-0.14-0.2-0.31,0.11-0.34c0.14-0.01,0.27-0.05,0.41-0.05c1.69,0,3.38,0,5.07,0
			c0.05,0,0.09,0,0.14,0c0.31,0,0.54,0.07,0.38,0.46c-0.06,0.03-0.12,0.07-0.18,0.1c-0.12,0.03-0.2,0.11-0.28,0.19
			c-0.6,0.46-1.3,0.68-2.05,0.78c-0.36-0.04-0.72-0.04-1.08,0c-0.74-0.12-1.45-0.3-2.04-0.79C18.09,72.69,17.97,72.53,17.78,72.45
			L17.78,72.45z"/>
		<path class="st60" d="M6.3,55.38c0.03,0.01,0.07,0,0.09,0.02c0.44,0.62,1.1,0.54,1.74,0.53c1.75-0.01,3.49,0,5.24,0
			c-0.57,0.77-1.44,1.01-2.28,1.23C9.3,57.62,7.4,56.89,6.3,55.38z"/>
		<path class="st44" d="M63.49,68.2c0.09-0.23,0.27-0.29,0.5-0.29c1.27,0.01,2.54,0.01,3.82,0c0.23,0,0.41,0.06,0.5,0.29
			C66.9,69.15,64.91,69.15,63.49,68.2z"/>
		<path class="st61" d="M36.41,76.49c-0.03,0.27,0.08,0.56-0.07,0.82c-0.13-0.58-0.13-1.15,0-1.73
			C36.48,75.87,36.38,76.19,36.41,76.49z"/>
		<path class="st30" d="M48.96,80.09c-0.07-0.28,0.15-0.27,0.31-0.28c0.21-0.02,0.41,0,0.62,0C49.65,80.15,49.23,79.87,48.96,80.09z
			"/>
		<path class="st62" d="M4.7,46.44c-0.02,0-0.05,0-0.07,0c0-0.52,0-1.04,0-1.56c0.12,0.1,0.06,0.24,0.08,0.36
			C4.7,45.64,4.7,46.04,4.7,46.44z"/>
		<path class="st39" d="M49.96,61.36c0.43-0.12,0.85-0.12,1.28,0C50.82,61.36,50.39,61.36,49.96,61.36z"/>
		<path class="st7" d="M4.63,42.67c0.16,0.36,0.04,0.73,0.08,1.1c0,0,0,0,0,0c-0.03,0.04-0.05,0.04-0.08,0
			C4.63,43.4,4.63,43.03,4.63,42.67z"/>
		<path class="st63" d="M20.29,73.61c0.36-0.11,0.72-0.11,1.08,0C21.01,73.65,20.65,73.65,20.29,73.61z"/>
		<path class="st64" d="M42.13,80.91c0.36,0.03,0.74-0.08,1.09,0.07c-0.36,0-0.73,0-1.09,0.01c-0.03-0.02-0.04-0.03-0.03-0.05
			C42.11,80.92,42.12,80.91,42.13,80.91z"/>
		<path class="st65" d="M39.36,80.99c0.23-0.2,0.49-0.02,0.74-0.08c0.03,0.02,0.04,0.04,0.03,0.05c-0.01,0.02-0.02,0.03-0.03,0.03
			C39.85,80.99,39.61,80.99,39.36,80.99z"/>
		<path class="st46" d="M17.78,72.44c0.25,0.01,0.36,0.19,0.47,0.38C18.04,72.75,17.9,72.62,17.78,72.44z"/>
		<path class="st66" d="M4.72,47.19c0.12,0.21,0.11,0.42,0,0.63C4.72,47.61,4.72,47.4,4.72,47.19z"/>
		<path class="st30" d="M38.25,80.18c0.18,0.01,0.33,0.08,0.35,0.28C38.43,80.43,38.32,80.33,38.25,80.18z"/>
		<path class="st67" d="M43.79,80.9c0.21-0.12,0.42-0.12,0.63,0C44.21,80.9,44,80.9,43.79,80.9z"/>
		<path class="st68" d="M40.1,80.99c0-0.03,0-0.05,0-0.08c0.21,0.03,0.44-0.07,0.64,0.08C40.52,80.99,40.31,80.99,40.1,80.99z"/>
		<path class="st68" d="M42.13,80.91c0,0.03,0,0.05,0,0.08c-0.21,0-0.43,0-0.64,0C41.69,80.84,41.91,80.94,42.13,80.91z"/>
		<path class="st69" d="M77.5,47.73c-0.11-0.18-0.12-0.36,0.01-0.54C77.5,47.37,77.5,47.55,77.5,47.73z"/>
		<path class="st70" d="M4.73,41.29c0.11,0.18,0.11,0.36-0.01,0.54C4.72,41.65,4.72,41.47,4.73,41.29z"/>
		<path class="st41" d="M4.63,43.77c0.03,0,0.05,0,0.08,0c-0.02,0.15,0.06,0.32-0.08,0.46C4.63,44.07,4.63,43.92,4.63,43.77z"/>
		<path class="st30" d="M37.97,80c0.19-0.09,0.22,0.07,0.28,0.18C38.12,80.18,38.03,80.11,37.97,80z"/>
		<path class="st46" d="M23.42,72.82c0.05-0.12,0.08-0.27,0.28-0.19C23.64,72.74,23.54,72.8,23.42,72.82z"/>
		<path class="st71" d="M44.9,80.81c0.14-0.12,0.29-0.11,0.44-0.01C45.19,80.8,45.05,80.81,44.9,80.81z"/>
		<path class="st22" d="M44.33,29.95c0.26-0.17,0.54-0.19,0.84-0.19c9.56,0,19.13,0,28.69,0c0.21,0,0.43,0,0.64-0.01
			c0.35,0.65,0.6,1.34,0.83,2.03c-0.12,0.09-0.26,0.07-0.4,0.07c-9.13-0.02-18.26,0-27.39-0.01c-0.35,0-0.71,0-1.06,0.03
			c-0.2,0.01-0.35-0.1-0.46-0.25c-0.43-0.54-0.91-1.02-1.49-1.4C44.43,30.17,44.31,30.1,44.33,29.95z"/>
		<path class="st72" d="M46.29,31.79c0.22-0.07,0.44-0.09,0.68-0.09c9.24,0,18.49,0,27.73,0c0.22,0,0.43-0.01,0.63,0.09
			c0.23,0.51,0.43,1.02,0.53,1.57c-0.14,0.08-0.3,0.06-0.45,0.06c-9.15-0.01-18.3,0-27.45-0.01c-0.32,0-0.65,0.04-0.96-0.09
			C46.6,32.89,46.39,32.37,46.29,31.79z"/>
		<path class="st73" d="M46.92,33.17c0.19,0.13,0.41,0.09,0.63,0.09c9.21,0,18.43,0,27.64,0c0.23,0,0.46-0.04,0.67,0.09
			c0.23,0.47,0.3,0.98,0.45,1.47c-0.16,0.09-0.33,0.06-0.5,0.06c-9.15,0-18.31,0-27.46,0c-0.23,0-0.46,0.01-0.69-0.01
			c-0.28-0.03-0.51-0.13-0.61-0.41C46.95,34.04,46.74,33.62,46.92,33.17z"/>
		<path class="st74" d="M76.68,36.3c0.18,0.38,0.13,0.81,0.27,1.2c-0.25,0.22-0.55,0.15-0.84,0.15c-4.57,0-9.14,0-13.72,0
			c-5.16,0-10.31,0-15.47,0c-0.3,0-0.62,0.07-0.87-0.17c-0.07-0.13-0.07-0.27,0.01-0.39c0.24-0.37,0.47-0.74,0.67-1.14
			c0.06-0.13,0.17-0.16,0.3-0.09c0.29,0.15,0.6,0.1,0.91,0.1c9.21,0,18.43,0,27.64,0c0.21,0,0.43,0,0.64,0.01
			C76.45,36,76.62,36.07,76.68,36.3z"/>
		<path class="st75" d="M46.08,37.3c0.02,0.12,0.07,0.2,0.21,0.2c0.12,0,0.25,0,0.37,0c10.1,0,20.2,0,30.3,0
			c0.08,0.43,0.21,0.85,0.2,1.29c-10.67,0-21.34,0-32.01,0c-0.19,0-0.41,0.06-0.53-0.17C45.05,38.12,45.47,37.61,46.08,37.3z"/>
		<path class="st76" d="M76.68,36.3c-0.16-0.24-0.4-0.18-0.62-0.18c-9.54,0-19.07,0-28.61-0.01c-0.21,0-0.53,0.14-0.54-0.29
			c-0.12-0.51-0.01-0.99,0.21-1.46c0.12,0.38,0.43,0.37,0.74,0.37c4.24,0,8.48,0,12.71,0c5.04,0,10.07,0,15.11,0
			c0.21,0,0.43-0.04,0.63,0.09C76.49,35.3,76.61,35.8,76.68,36.3z"/>
		<path class="st77" d="M77.42,41.37c0.03,0,0.05,0,0.08,0c0,0.15,0,0.3,0,0.45C77.37,41.69,77.44,41.53,77.42,41.37z"/>
		<path class="st0" d="M47.12,34.37c0.01,0.5-0.12,0.98-0.21,1.46c-0.22,0.52-0.53,0.99-0.83,1.47c-0.47,0.46-0.91,0.95-1.46,1.32
			c-1.67,0.98-3.34,0.9-4.99-0.06c-0.05-0.03-0.11-0.03-0.17-0.04c-0.58-0.33-0.91-0.93-1.38-1.38c-0.34-0.49-0.6-1.03-0.83-1.58
			c-0.2-0.66-0.19-1.35-0.2-2.03c0.06-0.28,0.12-0.55,0.18-0.83c0.22-0.4,0.44-0.8,0.66-1.2c0.53-0.65,1.13-1.22,1.85-1.66
			c1.55-0.71,3.08-0.6,4.59,0.09c0.77,0.49,1.44,1.09,1.96,1.84c0.21,0.46,0.42,0.92,0.63,1.38C46.99,33.57,47.05,33.97,47.12,34.37
			z"/>
	</g>
</g>
</svg>
